<?xml version="1.0" encoding="UTF-8" standalone="no"?>
<svg
   xmlns:dc="http://purl.org/dc/elements/1.1/"
   xmlns:cc="http://creativecommons.org/ns#"
   xmlns:rdf="http://www.w3.org/1999/02/22-rdf-syntax-ns#"
   xmlns:svg="http://www.w3.org/2000/svg"
   xmlns="http://www.w3.org/2000/svg"
   xmlns:sodipodi="http://sodipodi.sourceforge.net/DTD/sodipodi-0.dtd"
   xmlns:inkscape="http://www.inkscape.org/namespaces/inkscape"
   enable-background="new 0 0 48 48"
   height="50.022522"
   id="Layer_1"
   version="1.1"
   viewBox="0 0 39.779529 50.022522"
   width="39.77953"
   xml:space="preserve"
   inkscape:version="0.92.5 (2060ec1f9f, 2020-04-08)"
   sodipodi:docname="logo.svg"><metadata
     id="metadata3399"><rdf:RDF><cc:Work
         rdf:about=""><dc:format>image/svg+xml</dc:format><dc:type
           rdf:resource="http://purl.org/dc/dcmitype/StillImage" /><dc:title></dc:title></cc:Work></rdf:RDF></metadata><defs
     id="defs3397" /><sodipodi:namedview
     pagecolor="#ffffff"
     bordercolor="#666666"
     borderopacity="1"
     objecttolerance="10"
     gridtolerance="10"
     guidetolerance="10"
     inkscape:pageopacity="0"
     inkscape:pageshadow="2"
     inkscape:window-width="1920"
     inkscape:window-height="999"
     id="namedview3395"
     showgrid="false"
     inkscape:zoom="6.2092814"
     inkscape:cx="-8.8960917"
     inkscape:cy="52.997482"
     inkscape:window-x="0"
     inkscape:window-y="25"
     inkscape:window-maximized="1"
     inkscape:current-layer="Layer_1"
     fit-margin-top="0"
     fit-margin-left="0"
     fit-margin-right="0"
     fit-margin-bottom="0" /><path
     d="m 19.889764,47.889765 c 0,0 -18.0000002,-9.417 -18.0000002,-28 0,-9.9410005 8.0590002,-18.0000012 18.0000002,-18.0000012 9.941,0 18,8.0590007 18,18.0000012 0,18.583 -18,28 -18,28 z m 0,-44.0000012 c -8.822,0 -16.0000007,7.1780012 -16.0000007,16.0000012 0,14.758 12.4620007,23.501 16.0030007,25.687 3.544,-2.177 15.997,-10.882 15.997,-25.687 0,-8.822 -7.178,-16.0000012 -16,-16.0000012 z m 0,25.0000012 c -4.971,0 -9,-4.029 -9,-9 0,-4.971 4.029,-9 9,-9 4.971,0 9,4.029 9,9 0,4.971 -4.029,9 -9,9 z m 0,-16 c -3.866,0 -7,3.134 -7,7 0,3.866 3.134,7 7,7 3.866,0 7,-3.134 7,-7 0,-3.866 -3.134,-7 -7,-7 z"
     id="path3393"
     style="clip-rule:evenodd;fill:#467329;fill-rule:evenodd;stroke:#467329;stroke-width:3.77952766;stroke-miterlimit:4;stroke-dasharray:none;stroke-opacity:1"
     inkscape:connector-curvature="0" /><path
     style="fill:#ffffff"
     d="M 19.098305,45.028403 C 15.11249,42.387973 11.50189,38.918887 8.952504,35.280255 7.131443,32.681128 5.735692,29.805451 4.9200754,26.972209 3.9559444,23.623067 3.6678254,19.926087 4.1556134,17.163075 4.8743874,13.091668 7.041059,9.582934 10.386561,7.0726052 c 2.229552,-1.6729654 4.924288,-2.7366813 7.772242,-3.0680028 0.859069,-0.099941 2.778263,-0.085206 3.663122,0.028126 4.074687,0.5218793 7.702201,2.5080555 10.357902,5.6712711 1.042285,1.2414715 2.164583,3.1908465 2.720849,4.7259795 0.317004,0.874837 0.6482,2.19149 0.803608,3.194694 0.107442,0.693571 0.127229,1.055846 0.128726,2.356907 0.0019,1.621683 -0.05394,2.388348 -0.281456,3.866537 -1.063258,6.908152 -5.112954,13.469103 -11.589739,18.77665 -1.245329,1.020512 -3.875811,2.894371 -4.062658,2.894087 -0.03335,-5e-5 -0.393735,-0.220753 -0.800852,-0.490451 z M 21.73292,28.728112 c 1.950272,-0.432527 3.662994,-1.432241 4.923152,-2.873641 3.189911,-3.648696 2.969627,-9.067992 -0.506444,-12.459191 -0.879008,-0.857547 -2.248336,-1.69193 -3.396789,-2.069791 -2.247843,-0.739581 -4.787365,-0.560654 -6.869019,0.483969 -1.18385,0.594084 -2.379169,1.57349 -3.142308,2.574704 -2.086744,2.737743 -2.455692,6.340333 -0.968089,9.452895 0.925009,1.93543 2.74218,3.626622 4.756588,4.42683 0.591895,0.235127 1.341885,0.444179 1.944138,0.541912 0.750841,0.121844 2.552772,0.07889 3.258771,-0.07769 z"
     id="path3401"
     inkscape:connector-curvature="0" /><path
     inkscape:connector-curvature="0"
     style="clip-rule:evenodd;fill:#467329;fill-rule:evenodd;stroke:#467329;stroke-width:3.77952766;stroke-miterlimit:4;stroke-dasharray:none;stroke-opacity:1"
     id="path889"
     d="m 19.889764,47.889765 c 0,0 -18.0000002,-9.417 -18.0000002,-28 0,-9.9410005 8.0590002,-18.0000012 18.0000002,-18.0000012 9.941,0 18,8.0590007 18,18.0000012 0,18.583 -18,28 -18,28 z m 0,-44.0000012 c -8.822,0 -16.0000007,7.1780012 -16.0000007,16.0000012 0,14.758 12.4620007,23.501 16.0030007,25.687 3.544,-2.177 15.997,-10.882 15.997,-25.687 0,-8.822 -7.178,-16.0000012 -16,-16.0000012 z m 0,25.0000012 c -4.971,0 -9,-4.029 -9,-9 0,-4.971 4.029,-9 9,-9 4.971,0 9,4.029 9,9 0,4.971 -4.029,9 -9,9 z m 0,-16 c -3.866,0 -7,3.134 -7,7 0,3.866 3.134,7 7,7 3.866,0 7,-3.134 7,-7 0,-3.866 -3.134,-7 -7,-7 z" /><path
     inkscape:connector-curvature="0"
     id="path891"
     d="M 19.098305,45.028403 C 15.11249,42.387973 11.50189,38.918887 8.952504,35.280255 7.131443,32.681128 5.735692,29.805451 4.9200754,26.972209 3.9559444,23.623067 3.6678254,19.926087 4.1556134,17.163075 4.8743874,13.091668 7.041059,9.582934 10.386561,7.0726052 c 2.229552,-1.6729654 4.924288,-2.7366813 7.772242,-3.0680028 0.859069,-0.099941 2.778263,-0.085206 3.663122,0.028126 4.074687,0.5218793 7.702201,2.5080555 10.357902,5.6712711 1.042285,1.2414715 2.164583,3.1908465 2.720849,4.7259795 0.317004,0.874837 0.6482,2.19149 0.803608,3.194694 0.107442,0.693571 0.127229,1.055846 0.128726,2.356907 0.0019,1.621683 -0.05394,2.388348 -0.281456,3.866537 -1.063258,6.908152 -5.112954,13.469103 -11.589739,18.77665 -1.245329,1.020512 -3.875811,2.894371 -4.062658,2.894087 -0.03335,-5e-5 -0.393735,-0.220753 -0.800852,-0.490451 z M 21.73292,28.728112 c 1.950272,-0.432527 3.662994,-1.432241 4.923152,-2.873641 3.189911,-3.648696 2.969627,-9.067992 -0.506444,-12.459191 -0.879008,-0.857547 -2.248336,-1.69193 -3.396789,-2.069791 -2.247843,-0.739581 -4.787365,-0.560654 -6.869019,0.483969 -1.18385,0.594084 -2.379169,1.57349 -3.142308,2.574704 -2.086744,2.737743 -2.455692,6.340333 -0.968089,9.452895 0.925009,1.93543 2.74218,3.626622 4.756588,4.42683 0.591895,0.235127 1.341885,0.444179 1.944138,0.541912 0.750841,0.121844 2.552772,0.07889 3.258771,-0.07769 z"
     style="fill:#ffffff" /></svg>