<?xml version="1.0" encoding="UTF-8" standalone="no"?>
<svg
   xmlns:dc="http://purl.org/dc/elements/1.1/"
   xmlns:cc="http://creativecommons.org/ns#"
   xmlns:rdf="http://www.w3.org/1999/02/22-rdf-syntax-ns#"
   xmlns:svg="http://www.w3.org/2000/svg"
   xmlns="http://www.w3.org/2000/svg"
   xmlns:sodipodi="http://sodipodi.sourceforge.net/DTD/sodipodi-0.dtd"
   xmlns:inkscape="http://www.inkscape.org/namespaces/inkscape"
   enable-background="new 0 0 48 48"
   height="48px"
   id="Layer_1"
   version="1.1"
   viewBox="0 0 48 48"
   width="48px"
   xml:space="preserve"
   inkscape:version="0.91 r13725"
   sodipodi:docname="location-pin-other.svg"><metadata
     id="metadata3399"><rdf:RDF><cc:Work
         rdf:about=""><dc:format>image/svg+xml</dc:format><dc:type
           rdf:resource="http://purl.org/dc/dcmitype/StillImage" /><dc:title></dc:title></cc:Work></rdf:RDF></metadata><defs
     id="defs3397" /><sodipodi:namedview
     pagecolor="#ffffff"
     bordercolor="#666666"
     borderopacity="1"
     objecttolerance="10"
     gridtolerance="10"
     guidetolerance="10"
     inkscape:pageopacity="0"
     inkscape:pageshadow="2"
     inkscape:window-width="1920"
     inkscape:window-height="1005"
     id="namedview3395"
     showgrid="false"
     inkscape:zoom="17.5625"
     inkscape:cx="24"
     inkscape:cy="23.97153"
     inkscape:window-x="0"
     inkscape:window-y="25"
     inkscape:window-maximized="1"
     inkscape:current-layer="Layer_1" /><path
     clip-rule="evenodd"
     d="M24,47c0,0-18-9.417-18-28C6,9.059,14.059,1,24,1s18,8.059,18,18  C42,37.583,24,47,24,47z M24,3C15.178,3,8,10.178,8,19c0,14.758,12.462,23.501,16.003,25.687C27.547,42.51,40,33.805,40,19  C40,10.178,32.822,3,24,3z M24,28c-4.971,0-9-4.029-9-9s4.029-9,9-9s9,4.029,9,9S28.971,28,24,28z M24,12c-3.866,0-7,3.134-7,7  s3.134,7,7,7s7-3.134,7-7S27.866,12,24,12z"
     fill-rule="evenodd"
     fill="#467329"
     id="path3393" /><path
     style="fill:#74BF45"
     d="M 23.208541,44.138638 C 19.222726,41.498208 15.612126,38.029122 13.062741,34.39049 11.24168,31.791363 9.8459281,28.915686 9.0303118,26.082444 8.0661809,22.733302 7.7780614,19.036322 8.2658493,16.27331 8.9846236,12.201903 11.151296,8.6931701 14.496797,6.1828413 16.726349,4.5098759 19.421085,3.44616 22.269039,3.1148385 c 0.859069,-0.099941 2.778263,-0.085206 3.663122,0.028126 4.074687,0.5218793 7.702201,2.5080555 10.357902,5.6712708 1.042285,1.2414711 2.164583,3.1908461 2.720849,4.7259791 0.317004,0.874837 0.6482,2.19149 0.803608,3.194694 0.107442,0.693571 0.127229,1.055846 0.128726,2.356907 0.0019,1.621683 -0.05394,2.388348 -0.281456,3.866537 -1.063258,6.908152 -5.112954,13.469103 -11.589739,18.77665 -1.245329,1.020512 -3.875811,2.894371 -4.062658,2.894087 -0.03335,-5e-5 -0.393735,-0.220753 -0.800852,-0.490451 z m 2.634615,-16.300291 c 1.950272,-0.432527 3.662994,-1.432241 4.923152,-2.873641 3.189911,-3.648696 2.969627,-9.067992 -0.506444,-12.459191 -0.879008,-0.857547 -2.248336,-1.69193 -3.396789,-2.069791 -2.247843,-0.7395805 -4.787365,-0.5606533 -6.869019,0.483969 -1.18385,0.594084 -2.379169,1.57349 -3.142308,2.574704 -2.086744,2.737743 -2.455692,6.340333 -0.968089,9.452895 0.925009,1.93543 2.74218,3.626622 4.756588,4.42683 0.591895,0.235127 1.341885,0.444179 1.944138,0.541912 0.750841,0.121844 2.552772,0.07889 3.258771,-0.07769 z"
     id="path3401"
     inkscape:connector-curvature="0" /></svg>
